<svg xmlns="http://www.w3.org/2000/svg" width="128" height="128" viewBox="0 0 128 128">
  <rect width="128" height="128" fill="none"/>
  <path d="M64 80c13.255 0 24-10.745 24-24V32c0-13.255-10.745-24-24-24S40 18.745 40 32v24c0 13.255 10.745 24 24 24z" fill="#666"/>
  <path d="M98 56c0-1.105-.895-2-2-2s-2 .895-2 2c0 16.568-13.432 30-30 30-16.568 0-30-13.432-30-30 0-1.105-.895-2-2-2s-2 .895-2 2c0 18.225 13.398 33.324 31 35.817V102H48c-1.105 0-2 .895-2 2s.895 2 2 2h32c1.105 0 2-.895 2-2s-.895-2-2-2H67V91.817C84.602 89.324 98 74.225 98 56z" fill="#666"/>
</svg> 